<svg width="32" height="32" viewBox="0 0 32 32" fill="none" xmlns="http://www.w3.org/2000/svg">
<path d="M12.2336 27.9999C8.27473 27.9794 5 20.6879 5 16.9745C5 10.9087 10.0434 9.58077 11.9871 9.58077C12.863 9.58077 13.7983 9.89112 14.6233 10.1658C15.2002 10.3573 15.7968 10.5551 16.1286 10.5551C16.3273 10.5551 16.7953 10.3869 17.2085 10.2393C18.0898 9.92272 19.1865 9.5293 20.4635 9.5293C20.4658 9.5293 20.4688 9.5293 20.4711 9.5293C21.4246 9.5293 24.3158 9.71811 26.054 12.0733L26.4612 12.6253L25.8752 13.0243C25.0381 13.5942 23.5107 14.6338 23.5107 16.693C23.5107 19.132 25.2405 20.0699 26.0715 20.5211C26.4384 20.7202 26.8181 20.9255 26.8181 21.3746C26.8181 21.6678 24.2245 27.9636 20.4581 27.9636C19.5365 27.9636 18.8851 27.7136 18.3105 27.4932C17.7291 27.27 17.2275 27.0778 16.3987 27.0778C15.9786 27.0778 15.4474 27.257 14.885 27.4472C14.1165 27.706 13.2466 27.9999 12.2595 27.9999H12.2336Z" fill="#222222"/>
<path d="M20.8606 4C20.9587 7.19105 18.4294 9.40485 15.903 9.26601C15.4867 6.71944 18.429 4 20.8606 4Z" fill="#222222"/>
</svg>
