<svg width="6" height="8" viewBox="0 0 6 8" fill="none" xmlns="http://www.w3.org/2000/svg">
<path d="M0.922424 0.768491C0.88674 0.730943 0.866669 0.679832 0.866669 0.626512C0.866669 0.573193 0.88674 0.522081 0.922424 0.484534L1.32203 0.0605983C1.35623 0.0219332 1.40399 0 1.45397 0C1.50395 0 1.55171 0.0219332 1.58592 0.0605983L5.0504 3.73604C5.10344 3.79224 5.13327 3.86848 5.13334 3.94801V4.05199C5.13327 4.13152 5.10344 4.20776 5.0504 4.26396L1.58592 7.9394C1.55171 7.97807 1.50395 8 1.45397 8C1.40399 8 1.35623 7.97807 1.32203 7.9394L0.922424 7.51547C0.88674 7.47792 0.866669 7.42681 0.866669 7.37349C0.866669 7.32017 0.88674 7.26906 0.922424 7.23151L3.96846 4L0.922424 0.768491Z" fill="#7247CA"/>
</svg>
