<svg width="16" height="16" viewBox="0 0 16 16" fill="none" xmlns="http://www.w3.org/2000/svg">
<path fill-rule="evenodd" clip-rule="evenodd" d="M8.123 11.7071C8.00698 11.7071 7.89614 11.662 7.81675 11.5823L2.75051 6.81411C2.66768 6.73679 2.62109 6.63155 2.62109 6.52175C2.62109 6.41196 2.66768 6.30672 2.75051 6.2294L2.9255 6.0647C3.00782 5.98427 3.12187 5.93955 3.2405 5.94117H5.498V1.41176C5.498 1.18435 5.69388 1 5.9355 1H10.3105C10.5521 1 10.748 1.18435 10.748 1.41176V5.94117H13.0055C13.1241 5.93955 13.2382 5.98427 13.3205 6.0647L13.4955 6.2294C13.5783 6.30672 13.6249 6.41196 13.6249 6.52175C13.6249 6.63155 13.5783 6.73679 13.4955 6.81411L8.42924 11.5823C8.34985 11.662 8.23901 11.7071 8.123 11.7071ZM14.25 14.5882V13.7647C14.25 13.5373 14.0541 13.3529 13.8125 13.3529H2.4375C2.19588 13.3529 2 13.5373 2 13.7647V14.5882C2 14.8156 2.19588 15 2.4375 15H13.8125C14.0541 15 14.25 14.8156 14.25 14.5882Z" fill="#222222"/>
</svg>
