<svg width="16" height="16" viewBox="0 0 16 16" fill="none" xmlns="http://www.w3.org/2000/svg">
<path d="M11.9167 3.5H9.41667C8.95643 3.5 8.58333 3.8731 8.58333 4.33333V6.83333H11.9167C12.0114 6.83123 12.1013 6.87533 12.1577 6.95156C12.214 7.0278 12.2298 7.12667 12.2 7.21667L11.5833 9.05C11.5265 9.21827 11.3693 9.33201 11.1917 9.33333H8.58333V15.5833C8.58333 15.8135 8.39679 16 8.16667 16H6.08333C5.85321 16 5.66667 15.8135 5.66667 15.5833V9.33333H4.41667C4.18655 9.33333 4 9.14678 4 8.91667V7.25C4 7.01988 4.18655 6.83333 4.41667 6.83333H5.66667V4.33333C5.66667 2.49238 7.15905 1 9 1H11.9167C12.1468 1 12.3333 1.18655 12.3333 1.41667V3.08333C12.3333 3.31345 12.1468 3.5 11.9167 3.5Z" fill="#222222"/>
</svg>
