<svg width="16" height="16" viewBox="0 0 16 16" fill="none" xmlns="http://www.w3.org/2000/svg">
<path d="M14.3015 8.19228C14.2995 10.8543 12.6052 13.2166 10.0947 14.0578C10.0007 14.0869 9.89867 14.0709 9.81794 14.0144C9.73722 13.9554 9.68926 13.8612 9.68879 13.7608V12.1088C9.70209 11.6638 9.59585 11.2235 9.38127 10.8342C9.34881 10.7833 9.34881 10.7181 9.38127 10.6672C9.40621 10.6202 9.4519 10.5881 9.50428 10.5805C11.0049 10.4259 11.8414 9.8257 11.8414 8.19228C11.8776 7.42962 11.6148 6.68314 11.1095 6.11338C11.1832 5.87271 11.2225 5.62272 11.2264 5.37092C11.2237 5.14516 11.1927 4.92064 11.1341 4.7027C11.0954 4.55738 10.9567 4.46256 10.8081 4.47996C10.2446 4.56043 9.72006 4.81563 9.30747 5.21005C8.54369 5.06159 7.75873 5.06159 6.99495 5.21005C6.58236 4.81563 6.0578 4.56043 5.49428 4.47996C5.34574 4.46256 5.20698 4.55738 5.16831 4.7027C5.10969 4.92064 5.0787 5.14516 5.07606 5.37092C5.07988 5.62272 5.11923 5.87271 5.19291 6.11338C4.68765 6.68314 4.42485 7.42962 4.46103 8.19228C4.46103 9.91233 5.38972 10.4877 7.09336 10.63C6.88188 10.9088 6.7367 11.2327 6.66899 11.5767C6.66899 11.5767 6.66899 11.62 6.66899 11.6509C6.66602 11.6797 6.66602 11.7088 6.66899 11.7375C6.64339 11.9321 6.46955 12.0714 6.27537 12.0531C6.18278 12.0487 6.09237 12.0233 6.0109 11.9789C5.67584 11.7736 5.38005 11.5095 5.13756 11.1993C4.98306 11.023 4.81879 10.8557 4.64554 10.6981C4.53545 10.6022 4.41348 10.5211 4.28267 10.4568C4.191 10.405 4.07912 10.405 3.98745 10.4568C3.89945 10.5136 3.84617 10.6115 3.846 10.7167V10.7538C3.84617 10.859 3.89945 10.9569 3.98745 11.0136C4.20823 11.1996 4.39909 11.4187 4.55328 11.6633C4.81367 12.0738 5.14484 12.4342 5.53118 12.7275C5.78573 12.8992 6.08577 12.9897 6.39222 12.9874H6.61363V13.7608C6.61316 13.8612 6.5652 13.9554 6.48448 14.0144C6.40375 14.0709 6.30168 14.0869 6.20771 14.0578C3.22607 13.0587 1.47274 9.95903 2.14198 6.87002C2.81121 3.78101 5.6877 1.69645 8.81217 2.03622C11.9366 2.37598 14.3039 5.03076 14.3015 8.19228Z" fill="#555555"/>
</svg>
