<svg width="16" height="16" viewBox="0 0 16 16" fill="none" xmlns="http://www.w3.org/2000/svg">
<path fill-rule="evenodd" clip-rule="evenodd" d="M2 3.42017C2 2.63583 2.63207 2 3.41176 2C3.78618 2 4.14527 2.14962 4.41002 2.41596C4.67478 2.68229 4.82352 3.04351 4.82352 3.42017C4.82352 4.2045 4.19145 4.84033 3.41176 4.84033C2.63207 4.84033 2 4.2045 2 3.42017ZM14.3545 9.39238C14.3789 7.85491 13.3362 6.50763 11.8487 6.15426C10.8518 5.93832 9.81267 6.22148 9.06043 6.91408V6.61583C9.06043 6.41974 8.90241 6.26078 8.70749 6.26078H6.94278C6.74786 6.26078 6.58984 6.41974 6.58984 6.61583V13.717C6.58984 13.9131 6.74786 14.072 6.94278 14.072H8.70749C8.90241 14.072 9.06043 13.9131 9.06043 13.717V9.71193C9.043 8.99877 9.53707 8.37597 10.2322 8.23489C10.6461 8.16301 11.0703 8.28027 11.3896 8.5548C11.7089 8.82933 11.8901 9.23263 11.884 9.65512V13.717C11.884 13.9131 12.042 14.072 12.2369 14.072H14.0016C14.1965 14.072 14.3545 13.9131 14.3545 13.717V9.39238ZM4.82214 6.61557V13.717C4.82214 13.9131 4.66413 14.072 4.4692 14.072H2.7045C2.50958 14.072 2.35156 13.9131 2.35156 13.717V6.61557C2.35156 6.41947 2.50958 6.2605 2.7045 6.2605H4.4692C4.66413 6.2605 4.82214 6.41947 4.82214 6.61557Z" fill="#555555"/>
</svg>
