<svg width="8" height="5" viewBox="0 0 8 5" fill="none" xmlns="http://www.w3.org/2000/svg">
<path d="M4.48017 4.84122C4.38646 4.94276 4.25932 4.99987 4.12671 5L3.87329 5C3.74097 4.99834 3.61434 4.94146 3.51983 4.84122L0.0986332 1.13158C0.0355072 1.06383 -4.24696e-08 0.971591 -3.82638e-08 0.875373C-3.40579e-08 0.779154 0.0355072 0.68692 0.0986333 0.619162L0.572133 0.106741C0.633596 0.0388535 0.717724 0.000597068 0.805548 0.000597072C0.893372 0.000597075 0.977499 0.0388535 1.03896 0.106741L4 3.31839L6.96104 0.106742C7.02365 0.0384264 7.10888 -3.89523e-08 7.19779 -3.50659e-08C7.2867 -3.11795e-08 7.37193 0.0384264 7.43454 0.106742L7.90137 0.619163C7.96449 0.68692 8 0.779154 8 0.875373C8 0.971592 7.96449 1.06383 7.90137 1.13158L4.48017 4.84122Z" fill="#808080"/>
</svg>
