<svg width="32" height="32" viewBox="0 0 32 32" fill="none" xmlns="http://www.w3.org/2000/svg">
<g clip-path="url(#clip0_2746_2388)">
<path d="M26.3125 14.75C25.9788 14.75 25.6513 14.7862 25.335 14.8525C24.9138 10.5912 21.3075 7.25 16.9375 7.25C16.42 7.25 16 7.67 16 8.1875V23.1875C16 23.705 16.42 24.125 16.9375 24.125H26.3125C28.8988 24.125 31 22.0237 31 19.4375C31 16.8537 28.8988 14.75 26.3125 14.75Z" fill="#222222"/>
<path d="M12.25 10.0625V23.1875C12.25 23.705 12.67 24.125 13.1875 24.125C13.705 24.125 14.125 23.705 14.125 23.1875V10.0625C14.125 9.545 13.705 9.125 13.1875 9.125C12.67 9.125 12.25 9.545 12.25 10.0625Z" fill="#222222"/>
<path d="M8.5 13.8125V23.1875C8.5 23.705 8.92 24.125 9.4375 24.125C9.955 24.125 10.375 23.705 10.375 23.1875V13.8125C10.375 13.295 9.955 12.875 9.4375 12.875C8.92 12.875 8.5 13.295 8.5 13.8125Z" fill="#222222"/>
<path d="M4.75 23.1875C4.75 23.705 5.17 24.125 5.6875 24.125C6.205 24.125 6.625 23.705 6.625 23.1875V13.8125C6.625 13.295 6.205 12.875 5.6875 12.875C5.17 12.875 4.75 13.295 4.75 13.8125V23.1875Z" fill="#222222"/>
<path d="M1.9375 24.125C2.455 24.125 2.875 23.705 2.875 23.1875V17.5625C2.875 17.045 2.455 16.625 1.9375 16.625C1.42 16.625 1 17.045 1 17.5625V23.1875C1 23.705 1.42 24.125 1.9375 24.125Z" fill="#222222"/>
</g>
<defs>
<clipPath id="clip0_2746_2388">
<rect width="30" height="30" fill="white" transform="translate(1 1)"/>
</clipPath>
</defs>
</svg>
