<svg width="16" height="16" viewBox="0 0 16 16" fill="none" xmlns="http://www.w3.org/2000/svg">
<path fill-rule="evenodd" clip-rule="evenodd" d="M8.7592 1.875V14.125C8.7592 14.6082 8.36703 15 7.88328 15H7.36648C7.13669 14.999 6.91649 14.9079 6.75334 14.7463L3.39857 11.395C2.90624 10.9026 2.23831 10.6256 1.54162 10.625C0.690206 10.625 0 9.93552 0 9.085V6.915C0 6.06448 0.690206 5.375 1.54162 5.375C2.23831 5.37439 2.90624 5.09742 3.39857 4.605L6.75334 1.25375C6.91649 1.0921 7.13669 1.00097 7.36648 1H7.88328C8.36703 1 8.7592 1.39175 8.7592 1.875ZM14.0144 3.38876C13.9301 3.30357 13.8185 3.25088 13.6991 3.24001C13.5775 3.23691 13.4601 3.28445 13.375 3.37126L12.7531 3.99251C12.5973 4.16032 12.5973 4.41971 12.7531 4.58751C14.4353 6.55219 14.4353 9.44783 12.7531 11.4125C12.5973 11.5803 12.5973 11.8397 12.7531 12.0075L13.375 12.6288C13.4601 12.7156 13.5775 12.7631 13.6991 12.76C13.8189 12.7507 13.9311 12.6978 14.0144 12.6113C16.3281 9.97153 16.3281 6.0285 14.0144 3.38876ZM10.9052 5.85632C10.9963 5.76768 11.1198 5.72024 11.2468 5.72507C11.3733 5.74 11.4892 5.8026 11.5709 5.90007C12.5052 7.14451 12.5052 8.85562 11.5709 10.1001C11.4908 10.1981 11.3733 10.2584 11.2468 10.2663C11.1209 10.2745 10.9972 10.2302 10.9052 10.1438L10.2833 9.51382C10.134 9.36814 10.1084 9.13744 10.222 8.96257C10.607 8.37854 10.607 7.6216 10.222 7.03757C10.1084 6.8627 10.134 6.632 10.2833 6.48632L10.9052 5.85632Z" fill="#222222"/>
</svg>
