<svg width="16" height="16" viewBox="0 0 16 16" fill="none" xmlns="http://www.w3.org/2000/svg">
<path d="M8.7592 1.875V14.125C8.7592 14.6082 8.36703 15 7.88328 15H7.36648C7.13669 14.999 6.91649 14.9079 6.75334 14.7463L3.39857 11.395C2.90624 10.9026 2.23831 10.6256 1.54162 10.625V10.625C0.690206 10.625 0 9.93552 0 9.085V6.915C0 6.06448 0.690206 5.375 1.54162 5.375C2.23831 5.37439 2.90624 5.09742 3.39857 4.605L6.75334 1.25375C6.91649 1.0921 7.13669 1.00097 7.36648 1H7.88328C8.36703 1 8.7592 1.39175 8.7592 1.875Z" fill="#222222"/>
</svg>
