<svg width="32" height="32" viewBox="0 0 32 32" fill="none" xmlns="http://www.w3.org/2000/svg">
<path d="M16 28C22.624 28 28 22.624 28 16C28 9.376 22.624 4 16 4C9.376 4 4 9.376 4 16C4 22.624 9.376 28 16 28ZM20.872 21.656V21.657C20.065 21.657 17.516 18.829 10.352 20.297C10.163 20.346 9.916 20.423 9.776 20.423C8.861 20.423 8.686 19.054 9.67 18.845C13.633 17.97 17.683 18.047 21.137 20.113C21.961 20.639 21.611 21.656 20.872 21.656V21.656ZM22.175 18.483C22.062 18.453 22.095 18.552 21.578 18.28C18.553 16.49 14.045 15.768 10.033 16.857C9.801 16.92 9.675 16.983 9.457 16.983C8.386 16.983 8.102 15.372 9.269 15.043C13.985 13.718 19.044 14.491 22.566 16.586C22.958 16.818 23.113 17.119 23.113 17.539C23.108 18.061 22.702 18.483 22.175 18.483V18.483ZM8.548 10.998C13.071 9.674 19.916 10.092 24.172 12.576C25.263 13.205 24.834 14.796 23.674 14.796L23.673 14.795C23.421 14.795 23.266 14.732 23.048 14.606C19.605 12.55 13.444 12.057 9.458 13.17C9.283 13.218 9.065 13.295 8.833 13.295C8.194 13.295 7.706 12.796 7.706 12.153C7.706 11.496 8.113 11.124 8.548 10.998V10.998Z" fill="#222222"/>
</svg>
