<?xml version="1.0" encoding="utf-8"?><svg xmlns="http://www.w3.org/2000/svg" xmlns:xlink="http://www.w3.org/1999/xlink"><symbol viewBox="0 0 32 32" id="apple" xmlns="http://www.w3.org/2000/svg"><path d="M12.234 28C8.274 27.98 5 20.688 5 16.974c0-6.065 5.043-7.393 6.987-7.393.876 0 1.811.31 2.636.585.577.191 1.174.39 1.506.39.198 0 .666-.17 1.08-.317.88-.316 1.977-.71 3.255-.71h.007c.954 0 3.845.19 5.583 2.544l.407.552-.586.4c-.837.57-2.364 1.609-2.364 3.668 0 2.439 1.73 3.377 2.56 3.828.367.2.747.404.747.854 0 .293-2.594 6.589-6.36 6.589-.921 0-1.573-.25-2.147-.47-.582-.224-1.084-.416-1.912-.416-.42 0-.952.179-1.514.37-.768.258-1.638.552-2.626.552h-.025zM20.86 4c.099 3.191-2.43 5.405-4.957 5.266C15.487 6.719 18.429 4 20.861 4z"/></symbol><symbol viewBox="0 0 11 8" id="arrow" xmlns="http://www.w3.org/2000/svg"><path d="M10.354 4.354a.5.5 0 000-.708L7.172.464a.5.5 0 10-.708.708L9.293 4 6.464 6.828a.5.5 0 10.708.708l3.182-3.182zM0 4.5h10v-1H0v1z"/></symbol><symbol viewBox="0 0 6 8" id="btn-arrow" xmlns="http://www.w3.org/2000/svg"><path d="M.922.768A.206.206 0 01.867.627c0-.054.02-.105.055-.142l.4-.424A.176.176 0 011.454 0c.05 0 .098.022.132.06L5.05 3.737a.31.31 0 01.083.212v.104a.31.31 0 01-.083.212L1.586 7.939A.176.176 0 011.454 8a.176.176 0 01-.132-.06l-.4-.425a.206.206 0 01-.055-.142c0-.053.02-.104.055-.141L3.968 4 .922.768z"/></symbol><symbol viewBox="0 0 18 18" id="cart" xmlns="http://www.w3.org/2000/svg"><path d="M5.8 11.637h9.563a.527.527 0 00.507-.383l2.11-7.382a.528.528 0 00-.507-.673H4.583l-.377-1.696a.527.527 0 00-.515-.413H.527a.527.527 0 100 1.055h2.741l1.904 8.568c-.56.243-.953.802-.953 1.451 0 .873.71 1.582 1.582 1.582h9.562a.527.527 0 100-1.055H5.801a.528.528 0 01-.002-1.054zm10.973-7.383l-1.808 6.328H6.224L4.817 4.254h11.956z"/><path d="M5.273 15.328c0 .872.71 1.582 1.582 1.582.873 0 1.582-.71 1.582-1.582 0-.872-.71-1.582-1.582-1.582-.872 0-1.582.71-1.582 1.582zm1.582-.527a.528.528 0 11-.001 1.056.528.528 0 01.001-1.056zm5.872.527c0 .872.71 1.582 1.582 1.582.872 0 1.582-.71 1.582-1.582 0-.872-.71-1.582-1.582-1.582-.873 0-1.582.71-1.582 1.582zm1.582-.527a.528.528 0 11-.002 1.056.528.528 0 01.002-1.056z"/></symbol><symbol viewBox="0 0 12 12" id="cross" xmlns="http://www.w3.org/2000/svg"><path d="M1 1.153L11 11m-10-.153L11 1"/></symbol><symbol viewBox="0 0 16 16" id="download" xmlns="http://www.w3.org/2000/svg"><path fill-rule="evenodd" clip-rule="evenodd" d="M8.123 11.707a.432.432 0 01-.306-.125L2.75 6.814a.4.4 0 01-.13-.292.4.4 0 01.13-.293l.175-.164a.442.442 0 01.314-.124h2.258v-4.53c0-.227.196-.411.438-.411h4.374c.242 0 .438.184.438.412v4.53h2.258a.443.443 0 01.314.123l.175.164a.4.4 0 01.13.293.4.4 0 01-.13.292L8.43 11.582a.432.432 0 01-.306.125zm6.127 2.881v-.823c0-.228-.196-.412-.438-.412H2.438c-.242 0-.438.184-.438.412v.823c0 .228.196.412.438.412h11.374c.242 0 .438-.184.438-.412z"/></symbol><symbol viewBox="0 0 16 16" id="facebook" xmlns="http://www.w3.org/2000/svg"><path d="M11.917 3.5h-2.5a.833.833 0 00-.834.833v2.5h3.334a.292.292 0 01.283.384l-.617 1.833a.417.417 0 01-.391.283H8.583v6.25c0 .23-.186.417-.416.417H6.083a.417.417 0 01-.416-.417v-6.25h-1.25A.417.417 0 014 8.917V7.25c0-.23.187-.417.417-.417h1.25v-2.5A3.333 3.333 0 019 1h2.917c.23 0 .416.187.416.417v1.666c0 .23-.186.417-.416.417z"/></symbol><symbol viewBox="0 0 16 16" id="github" xmlns="http://www.w3.org/2000/svg"><path d="M14.302 8.192a6.184 6.184 0 01-4.207 5.866.318.318 0 01-.277-.044.316.316 0 01-.13-.253v-1.652a2.487 2.487 0 00-.307-1.275.155.155 0 010-.167.166.166 0 01.123-.086c1.5-.155 2.337-.755 2.337-2.389a2.925 2.925 0 00-.731-2.079c.073-.24.113-.49.116-.742a2.698 2.698 0 00-.092-.668.301.301 0 00-.326-.223 2.73 2.73 0 00-1.5.73 6.06 6.06 0 00-2.313 0 2.73 2.73 0 00-1.5-.73.301.301 0 00-.327.223 2.69 2.69 0 00-.092.668c.004.252.043.502.117.742a2.925 2.925 0 00-.732 2.08c0 1.72.929 2.295 2.632 2.437a2.302 2.302 0 00-.424.947v.074a.422.422 0 000 .087.363.363 0 01-.394.315.614.614 0 01-.264-.074 3.292 3.292 0 01-.873-.78 6.214 6.214 0 00-.492-.5 1.682 1.682 0 00-.363-.242.3.3 0 00-.296 0 .31.31 0 00-.141.26v.037a.31.31 0 00.141.26c.221.186.412.405.566.65.26.41.592.77.978 1.063.255.172.555.263.861.26h.222v.774c0 .1-.049.194-.13.253a.318.318 0 01-.276.044c-2.982-1-4.735-4.099-4.066-7.188.67-3.089 3.546-5.174 6.67-4.834 3.125.34 5.492 2.995 5.49 6.156z"/></symbol><symbol viewBox="0 0 13 12" id="heart" xmlns="http://www.w3.org/2000/svg"><path fill-rule="evenodd" clip-rule="evenodd" d="M6.486 1.343A4.125 4.125 0 019.406 0a3.568 3.568 0 013.567 3.568c0 2.332-2.593 4.889-4.148 6.422l-.393.388-1.478 1.48A.486.486 0 016.61 12h-.247a.486.486 0 01-.344-.143l-1.478-1.479-.393-.388C2.593 8.457 0 5.9 0 3.568A3.568 3.568 0 013.568 0a4.125 4.125 0 012.918 1.343zm0 9.146L7.915 9.08c1.316-1.297 3.762-3.723 3.762-5.514a2.27 2.27 0 00-2.29-2.27A3.315 3.315 0 006.915 2.79a.33.33 0 01-.26.13h-.292a.5.5 0 01-.389-.188 3.243 3.243 0 00-2.406-1.434 2.27 2.27 0 00-2.27 2.27c0 1.79 2.445 4.217 3.762 5.514l1.427 1.408z"/></symbol><symbol viewBox="0 0 16 16" id="linked" xmlns="http://www.w3.org/2000/svg"><path fill-rule="evenodd" clip-rule="evenodd" d="M2 3.42a1.41 1.41 0 012.41-1.004c.265.266.414.628.414 1.004 0 .785-.633 1.42-1.412 1.42C2.632 4.84 2 4.205 2 3.42zm12.354 5.972a3.27 3.27 0 00-2.505-3.238 3.135 3.135 0 00-2.789.76v-.298a.354.354 0 00-.353-.355H6.943a.354.354 0 00-.353.355v7.101c0 .196.158.355.353.355h1.764a.354.354 0 00.353-.355V9.712a1.468 1.468 0 011.172-1.477c.414-.072.838.045 1.158.32.319.274.5.678.494 1.1v4.062c0 .196.158.355.353.355h1.765a.354.354 0 00.352-.355V9.392zM4.822 6.616v7.101a.354.354 0 01-.353.355H2.704a.354.354 0 01-.352-.355V6.616c0-.197.158-.355.353-.355h1.764c.195 0 .353.158.353.355z"/></symbol><symbol viewBox="0 0 6 10" id="pagination" xmlns="http://www.w3.org/2000/svg"><path d="M.07.96A.258.258 0 010 .784C0 .716.025.653.07.606l.5-.53A.22.22 0 01.733 0 .22.22 0 01.9.076L5.23 4.67c.067.07.104.166.104.265v.13c0 .1-.037.195-.103.265L.9 9.924A.22.22 0 01.733 10a.22.22 0 01-.165-.076l-.5-.53A.258.258 0 010 9.217c0-.067.025-.13.07-.178L3.877 5 .07.96z"/></symbol><symbol viewBox="0 0 16 16" id="pause" xmlns="http://www.w3.org/2000/svg"><rect x="1" width="4" height="16" rx="2"/><rect x="10" width="4" height="16" rx="2"/></symbol><symbol viewBox="0 0 16 16" id="play" xmlns="http://www.w3.org/2000/svg"><path d="M15.02 7.831v.357a.969.969 0 01-.472.828l-11.407 6.64c-.688.409-1.045.409-1.35.23l-.32-.178A.969.969 0 011 14.905V1.115a.969.969 0 01.472-.83L1.79.108c.306-.178.663-.178 1.555.344l11.203 6.552a.967.967 0 01.472.828z"/></symbol><symbol viewBox="0 0 24 24" id="podcast-card-play" xmlns="http://www.w3.org/2000/svg"><path d="M12 0C5.383 0 0 5.383 0 12s5.383 12 12 12 12-5.383 12-12S18.617 0 12 0zm4.77 12.42l-7 4.5a.498.498 0 01-.51.019A.5.5 0 019 16.5v-9a.5.5 0 01.77-.42l7 4.5a.5.5 0 010 .84z"/></symbol><symbol viewBox="0 0 12 13" id="podcast-link" xmlns="http://www.w3.org/2000/svg"><path d="M11.391 6.363v.29a.787.787 0 01-.383.673L1.74 12.72c-.56.332-.85.332-1.098.187l-.259-.145A.787.787 0 010 12.11V.905C0 .63.146.374.383.232l.26-.145c.248-.145.538-.145 1.262.28l9.103 5.323a.787.787 0 01.383.673z"/></symbol><symbol viewBox="0 0 16 16" id="pouse" xmlns="http://www.w3.org/2000/svg"><rect x="2" width="4" height="16" rx="2"/><rect x="11" width="4" height="16" rx="2"/></symbol><symbol viewBox="0 0 16 16" id="profile" xmlns="http://www.w3.org/2000/svg"><g clip-path="url(#aqclip0_2372_1330)"><path d="M8 9.012c-4.807 0-7.455 2.274-7.455 6.404 0 .323.261.584.584.584H14.87a.584.584 0 00.584-.584c0-4.13-2.648-6.404-7.455-6.404zm-6.266 5.82C1.964 11.744 4.069 10.18 8 10.18s6.036 1.565 6.266 4.652H1.734zM8 0C5.792 0 4.127 1.699 4.127 3.951 4.127 6.27 5.865 8.156 8 8.156c2.136 0 3.874-1.886 3.874-4.205C11.874 1.7 10.209 0 8 0zm0 6.988c-1.492 0-2.705-1.362-2.705-3.037 0-1.613 1.138-2.783 2.705-2.783 1.543 0 2.706 1.196 2.706 2.783 0 1.675-1.214 3.037-2.706 3.037z"/></g><defs><clipPath id="aqclip0_2372_1330"><path d="M0 0h16v16H0z"/></clipPath></defs></symbol><symbol viewBox="0 0 16 14" id="reply" xmlns="http://www.w3.org/2000/svg"><path d="M8 4c5.2 0 8 3.8 8 10-1.5-2.4-2.7-4-8-4v4L0 7l8-7v4z"/></symbol><symbol viewBox="0 0 16 16" id="search" xmlns="http://www.w3.org/2000/svg"><path fill-rule="evenodd" clip-rule="evenodd" d="M12.331 11.072l3.555 3.56a.445.445 0 01-.018.613l-.622.623a.444.444 0 01-.631 0l-3.555-3.56a2.31 2.31 0 01-.267-.32l-.666-.89a6.216 6.216 0 01-3.884 1.362A6.232 6.232 0 013.531.613a6.215 6.215 0 017.57 1.753 6.236 6.236 0 01-.04 7.78l.888.614c.139.089.267.194.382.312zM1.8 6.23a4.44 4.44 0 007.586 3.146 4.453 4.453 0 001.3-3.146 4.447 4.447 0 00-4.443-4.45A4.447 4.447 0 001.8 6.23z"/></symbol><symbol viewBox="0 0 8 5" id="select-bird" xmlns="http://www.w3.org/2000/svg"><path d="M4.48 4.841A.482.482 0 014.127 5h-.254a.494.494 0 01-.353-.159L.099 1.131A.376.376 0 010 .876C0 .78.036.687.099.62L.572.107A.315.315 0 01.806 0c.087 0 .171.038.233.106L4 3.318 6.961.107A.321.321 0 017.198 0a.32.32 0 01.237.107L7.9.619c.064.068.1.161.1.256a.376.376 0 01-.099.257l-3.42 3.71z"/></symbol><symbol viewBox="0 0 16 16" id="sound" xmlns="http://www.w3.org/2000/svg"><path fill-rule="evenodd" clip-rule="evenodd" d="M8.76 1.875v12.25a.875.875 0 01-.877.875h-.517a.877.877 0 01-.613-.254L3.4 11.395a2.63 2.63 0 00-1.857-.77A1.54 1.54 0 010 9.085v-2.17c0-.85.69-1.54 1.542-1.54a2.63 2.63 0 001.857-.77l3.354-3.351A.876.876 0 017.366 1h.517c.484 0 .876.392.876.875zm5.254 1.514a.508.508 0 00-.315-.149.438.438 0 00-.324.131l-.622.622a.437.437 0 000 .595 5.246 5.246 0 010 6.824.437.437 0 000 .595l.622.622a.438.438 0 00.324.131.49.49 0 00.315-.149 6.995 6.995 0 000-9.222zm-3.109 2.467a.465.465 0 01.342-.13.5.5 0 01.324.174 3.497 3.497 0 010 4.2.455.455 0 01-.666.044l-.622-.63a.437.437 0 01-.061-.551 1.749 1.749 0 000-1.925.437.437 0 01.061-.552l.622-.63z"/></symbol><symbol viewBox="0 0 16 16" id="sound_muted" xmlns="http://www.w3.org/2000/svg"><path d="M8.76 1.875v12.25a.875.875 0 01-.877.875h-.517a.877.877 0 01-.613-.254L3.4 11.395a2.63 2.63 0 00-1.857-.77A1.54 1.54 0 010 9.085v-2.17c0-.85.69-1.54 1.542-1.54a2.63 2.63 0 001.857-.77l3.354-3.351A.876.876 0 017.366 1h.517c.484 0 .876.392.876.875z"/></symbol><symbol viewBox="0 0 32 32" id="soundcloud" xmlns="http://www.w3.org/2000/svg"><g clip-path="url(#awclip0_2746_2388)"><path d="M26.313 14.75c-.334 0-.662.036-.978.102-.421-4.26-4.027-7.602-8.398-7.602a.938.938 0 00-.937.938v15c0 .517.42.937.938.937h9.375A4.69 4.69 0 0031 19.437a4.692 4.692 0 00-4.688-4.687zM12.25 10.063v13.124a.938.938 0 001.875 0V10.063a.938.938 0 00-1.875 0zm-3.75 3.75v9.374a.938.938 0 001.875 0v-9.375a.938.938 0 00-1.875 0zm-3.75 9.375a.938.938 0 001.875 0v-9.375a.938.938 0 00-1.875 0v9.374zm-2.812.937c.517 0 .937-.42.937-.938v-5.625a.938.938 0 00-1.875 0v5.625c0 .518.42.938.938.938z"/></g><defs><clipPath id="awclip0_2746_2388"><path transform="translate(1 1)" d="M0 0h30v30H0z"/></clipPath></defs></symbol><symbol viewBox="0 0 32 32" id="spotify" xmlns="http://www.w3.org/2000/svg"><path d="M16 28c6.624 0 12-5.376 12-12S22.624 4 16 4 4 9.376 4 16s5.376 12 12 12zm4.872-6.344v.001c-.807 0-3.356-2.828-10.52-1.36-.189.049-.436.126-.576.126-.915 0-1.09-1.369-.106-1.578 3.963-.875 8.013-.798 11.467 1.268.824.526.474 1.543-.265 1.543zm1.303-3.173c-.113-.03-.08.069-.597-.203-3.025-1.79-7.533-2.512-11.545-1.423-.232.063-.358.126-.576.126-1.071 0-1.355-1.611-.188-1.94 4.716-1.325 9.775-.552 13.297 1.543.392.232.547.533.547.953a.938.938 0 01-.938.944zM8.548 10.998c4.523-1.324 11.368-.906 15.624 1.578 1.091.629.662 2.22-.498 2.22l-.001-.001c-.252 0-.407-.063-.625-.189-3.443-2.056-9.604-2.549-13.59-1.436-.175.048-.393.125-.625.125-.639 0-1.127-.499-1.127-1.142 0-.657.407-1.029.842-1.155z"/></symbol><symbol viewBox="0 0 15 14" id="star-fill" xmlns="http://www.w3.org/2000/svg"><path d="M14.81 5.37a.743.743 0 00-.64-.511l-4.042-.367L8.53.752a.744.744 0 00-1.37 0l-1.597 3.74-4.042.367A.745.745 0 001.1 6.161L4.154 8.84l-.9 3.967a.744.744 0 001.107.804l3.485-2.083 3.484 2.083a.743.743 0 001.108-.804l-.9-3.967 3.054-2.679a.745.745 0 00.217-.791z"/></symbol><symbol viewBox="0 0 15 14" id="star-stroke" xmlns="http://www.w3.org/2000/svg"><path d="M13.74 5.356L9.7 4.989l-.297-.027-.117-.274L7.688.95a.245.245 0 00-.451-.001l-1.598 3.74-.117.273-.296.027-4.042.367a.246.246 0 00-.14.43L4.1 8.465l.223.195-.066.29-.9 3.967a.245.245 0 00.095.254.242.242 0 00.269.012L7.206 11.1l.256-.154.256.154 3.484 2.083 2.538-7.827zm0 0c.097.009.18.074.21.168m-.21-.168l.21.168m-3.004 8.088a.743.743 0 00.819-.037l2.114-7.79-3.055 2.68-.223.195.066.29.9 3.967a.245.245 0 01-.095.254.244.244 0 01-.27.012l-.256.428zm0 0l-3.484-2.084 3.484 2.083zm3.005-8.088a.246.246 0 01-.072.262l.072-.262z"/></symbol><symbol viewBox="0 0 16 16" id="twitter" xmlns="http://www.w3.org/2000/svg"><path d="M14.216 3.64a5.302 5.302 0 01-1.223 1.184v.366a8.14 8.14 0 01-2.396 5.786 8.034 8.034 0 01-5.777 2.34 8.044 8.044 0 01-3.601-.837.166.166 0 01-.1-.153v-.073c0-.096.077-.173.172-.173a5.831 5.831 0 003.383-1.224 2.887 2.887 0 01-2.57-1.702.174.174 0 01.02-.169.171.171 0 01.152-.07c.337.033.678.002 1.004-.094A2.893 2.893 0 011 6.287a.173.173 0 01.071-.154.17.17 0 01.167-.019c.33.146.685.223 1.044.226a2.856 2.856 0 01-1.13-3.285.358.358 0 01.602-.12 8.145 8.145 0 005.557 2.58 2.677 2.677 0 01-.08-.664A2.899 2.899 0 019.062 2.2a2.868 2.868 0 013.133.695 5.717 5.717 0 001.58-.552.112.112 0 01.118 0 .114.114 0 010 .12 2.9 2.9 0 01-1.163 1.33 5.64 5.64 0 001.322-.319.105.105 0 01.119 0 .113.113 0 01.046.166z"/></symbol></svg>