<svg width="15" height="14" viewBox="0 0 15 14" fill="none" xmlns="http://www.w3.org/2000/svg">
<path d="M13.7404 5.35604L13.7403 5.35603L9.69888 4.98912L9.40212 4.96218L9.28508 4.68816L7.68825 0.949652C7.6882 0.949529 7.68814 0.949407 7.68809 0.949285C7.64852 0.857484 7.56023 0.799813 7.46193 0.799813C7.36321 0.799813 7.27544 0.8578 7.23671 0.948596L7.23661 0.948835L5.63943 4.68816L5.52238 4.96219L5.22562 4.98912L1.18434 5.35596C1.18426 5.35597 1.18418 5.35597 1.18409 5.35598C1.08697 5.36504 1.00409 5.4306 0.972959 5.52489C0.942618 5.61891 0.971011 5.7212 1.04461 5.78577C1.04463 5.78578 1.04464 5.78579 1.04465 5.7858L4.09958 8.46454L4.32301 8.66046L4.25722 8.95025L3.35658 12.917C3.35656 12.9171 3.35654 12.9172 3.35652 12.9173C3.33453 13.0151 3.37246 13.1137 3.45152 13.1709L3.45251 13.1716C3.49519 13.2026 3.54481 13.218 3.5955 13.218C3.63873 13.218 3.68184 13.2066 3.72081 13.1833L3.72094 13.1832L7.20584 11.0995L7.46196 10.9464L7.71806 11.0995L11.2022 13.1832L13.7404 5.35604ZM13.7404 5.35604C13.8374 5.36481 13.92 5.43026 13.9506 5.52404M13.7404 5.35604L13.9506 5.52404M10.9462 13.6115C11.2018 13.7643 11.5232 13.7503 11.7647 13.5753L13.8791 5.78588L10.8243 8.46454L10.6009 8.66046L10.6666 8.95025L11.5673 12.917C11.5673 12.9171 11.5673 12.9172 11.5674 12.9174C11.5893 13.0152 11.5514 13.1138 11.4723 13.1709L11.4719 13.1712C11.3922 13.229 11.2867 13.2336 11.2023 13.1832L10.9462 13.6115ZM10.9462 13.6115L7.46193 11.5278L10.9462 13.6115ZM13.9506 5.52404C13.9814 5.61891 13.953 5.72098 13.8793 5.78577L13.9506 5.52404Z" stroke="black" stroke-width="0.998064"/>
</svg>
