<svg width="15" height="14" viewBox="0 0 15 14" fill="none" xmlns="http://www.w3.org/2000/svg">
<path d="M14.8091 5.37003C14.7169 5.08655 14.4655 4.88585 14.1692 4.85904L10.1278 4.49214L8.53061 0.752815C8.41269 0.478091 8.14437 0.300781 7.84572 0.300781C7.54707 0.300781 7.27865 0.478091 7.16148 0.752815L5.5643 4.49214L1.52227 4.85904C1.22597 4.88638 0.975063 5.08709 0.882349 5.37003C0.790169 5.65352 0.875299 5.96445 1.09939 6.16099L4.15436 8.83976L3.2536 12.807C3.1877 13.0987 3.30092 13.4004 3.54296 13.5753C3.67306 13.6699 3.82591 13.7171 3.97929 13.7171C4.1111 13.7171 4.24302 13.682 4.36083 13.6115L7.84572 11.5278L11.33 13.6115C11.5856 13.7643 11.907 13.7503 12.1485 13.5753C12.3905 13.4004 12.5037 13.0987 12.4378 12.807L11.5371 8.83976L14.592 6.16099C14.816 5.96445 14.9013 5.65416 14.8091 5.37003Z" fill="black"/>
</svg>
