<svg width="16" height="16" viewBox="0 0 16 16" fill="none" xmlns="http://www.w3.org/2000/svg">
<path d="M14.2159 3.64024C13.8744 4.0985 13.4616 4.49825 12.9935 4.82404C12.9935 4.94375 12.9935 5.06346 12.9935 5.18982C12.9973 7.36374 12.1341 9.44825 10.5975 10.976C9.06094 12.5038 6.97949 13.3471 4.81978 13.3168C3.57121 13.321 2.33862 13.0342 1.21858 12.4788C1.15819 12.4523 1.11924 12.3922 1.11947 12.3259V12.2527C1.11947 12.1572 1.19638 12.0798 1.29127 12.0798C2.51858 12.0391 3.70212 11.611 4.67441 10.8561C3.56352 10.8336 2.564 10.1715 2.10401 9.15356C2.08078 9.09795 2.08801 9.03418 2.1231 8.98528C2.15819 8.93638 2.21607 8.90942 2.27581 8.91414C2.61344 8.94828 2.95444 8.91667 3.28019 8.82103C2.05385 8.56493 1.1324 7.54073 1.00053 6.28716C0.995841 6.22703 1.02263 6.16878 1.07121 6.13346C1.1198 6.09815 1.18316 6.09086 1.2384 6.11425C1.5675 6.26033 1.92276 6.33728 2.28242 6.34037C1.20786 5.63085 0.743727 4.28131 1.1525 3.05499C1.1947 2.93583 1.29607 2.8478 1.41938 2.82325C1.54268 2.7987 1.66971 2.84126 1.75381 2.93528C3.20385 4.48784 5.19625 5.413 7.31089 5.5157C7.25672 5.29826 7.23008 5.07481 7.23159 4.85064C7.25137 3.67524 7.97429 2.62817 9.06192 2.19963C10.1495 1.77109 11.3866 2.04589 12.194 2.89538C12.7443 2.78991 13.2764 2.60394 13.7732 2.34338C13.8096 2.32052 13.8558 2.32052 13.8922 2.34338C13.9149 2.38001 13.9149 2.42646 13.8922 2.46309C13.6515 3.01749 13.245 3.48247 12.7292 3.7932C13.1808 3.74051 13.6245 3.63334 14.0507 3.47398C14.0866 3.4494 14.1338 3.4494 14.1697 3.47398C14.1997 3.48781 14.2222 3.51427 14.2311 3.54631C14.24 3.57835 14.2345 3.61271 14.2159 3.64024Z" fill="#555555"/>
</svg>
