<svg width="9" height="8" viewBox="0 0 9 8" fill="none" xmlns="http://www.w3.org/2000/svg">
<path d="M2.5279 7.00293C2.61863 7.09961 2.74531 7.15445 2.8779 7.15445C3.01048 7.15445 3.13716 7.09961 3.2279 7.00293L8.84789 1.38293C8.94255 1.28905 8.99579 1.16125 8.99579 1.02793C8.99579 0.89461 8.94255 0.766812 8.84789 0.672928L8.31789 0.142929C8.12347 -0.0476429 7.81231 -0.0476429 7.61789 0.142929L2.8779 4.88293L1.3779 3.39293C1.28716 3.29625 1.16048 3.24141 1.0279 3.24141C0.895312 3.24141 0.768632 3.29625 0.677898 3.39293L0.147899 3.92293C0.0532428 4.01681 0 4.14461 0 4.27793C0 4.41125 0.0532428 4.53904 0.147899 4.63293L2.5279 7.00293Z" fill="#242424"/>
</svg>
