<svg width="8" height="5" viewBox="0 0 8 5" fill="none" xmlns="http://www.w3.org/2000/svg">
<path d="M0.768491 4.21085C0.730943 4.24653 0.679832 4.2666 0.626512 4.2666C0.573193 4.2666 0.522081 4.24653 0.484534 4.21085L0.0605983 3.81124C0.0219332 3.77704 6.40748e-09 3.72928 7.00352e-09 3.6793C7.59956e-09 3.62932 0.0219332 3.58156 0.0605983 3.54735L3.73604 0.082871C3.79224 0.0298324 3.86848 5.22968e-07 3.94801 -6.52796e-05L4.05199 -6.52784e-05C4.13152 5.26105e-07 4.20776 0.0298324 4.26396 0.082871L7.9394 3.54735C7.97807 3.58156 8 3.62932 8 3.6793C8 3.72928 7.97807 3.77704 7.9394 3.81124L7.51547 4.21085C7.47792 4.24653 7.42681 4.2666 7.37349 4.2666C7.32017 4.2666 7.26906 4.24653 7.23151 4.21085L4 1.16482L0.768491 4.21085Z" fill="#222222"/>
</svg>
